<svg width="110" height="20" xmlns="http://www.w3.org/2000/svg">
 <!-- Created by Sindre Sorhus -->
 <defs>
  <filter height="20" width="111" y="0" x="0" filterUnits="userSpaceOnUse" id="a"/>
  <linearGradient y2="1" x2="0.499622" y1="0" x1="0.499622" id="c">
   <stop stop-opacity="0.1" stop-color="#BBB" offset="0"/>
   <stop stop-opacity="0.1" offset="1"/>
  </linearGradient>
 </defs>
 <mask id="b" height="20" width="111" y="0" x="0" maskUnits="userSpaceOnUse">
  <path id="svg_1" d="m3,0l104,0c1.660004,0 3,1.34 3,3l0,14c0,1.66 -1.339996,3 -3,3l-104,0c-1.66,0 -3,-1.34 -3,-3l0,-14c0,-1.66 1.34,-3 3,-3z" filter="url(#a)" fill="#FFF"/>
 </mask>
 <g>
  <title>background</title>
  <rect fill="none" id="canvas_background" height="21" width="152" y="-1" x="-1"/>
 </g>
 <g>
  <title>Layer 1</title>
  <g id="svg_2" mask="url(#b)">
   <path id="svg_3" d="m0,0l34,0l0,20l-34,0l0,-20z" fill="#CCA6C4"/>
   <path id="svg_4" d="m34,0l77,0l0,20l-77,0l0,-20z" fill="#494368"/>
   <path id="svg_5" d="m0,0l111,0l0,20l-111,0l0,-20z" fill="url(#c)"/>
  </g>
  <path id="svg_6" d="m46.970001,7.62c0.419998,0 0.75,0.13 1.049999,0.400001c0.279999,0.27 0.43,0.589999 0.43,0.98l0,4.79l-5.239998,0c-0.420002,0 -0.77,-0.13 -1.050003,-0.4s-0.43,-0.59 -0.43,-0.98l0,-2.27l5.5,0l0,-1.150001c0,-0.07 -0.029999,-0.12 -0.079998,-0.16c-0.049999,-0.04 -0.110001,-0.07 -0.170002,-0.07l-5.239998,0l0,-1.14l5.23,0zm0.260002,5.02l0,-1.360001l-4.260002,0l0,1.13c0,0.07 0.029999,0.12 0.079998,0.16s0.110001,0.070001 0.170002,0.070001l4.010002,0zm11.859997,-5.02l1.299999,0l-2.489998,6.17l-1,0l-2.220001,-4.59l-2.099998,4.59l-0.030003,-0.01l0.010002,0.01l-1,0l-2.600002,-6.17l1.299999,0l1.790001,4.09l1.91,-4.09l1.400002,0l2.02,4.09l1.709999,-4.09zm6.950001,0c0.419998,0 0.769997,0.13 1.050003,0.400001s0.43,0.589999 0.43,0.98l0,2.27l-5.500004,0l0,1.129999c0,0.070001 0.029999,0.120001 0.080002,0.160001c0.049999,0.04 0.110001,0.07 0.169998,0.07l5.240002,0l0,1.14l-5.240002,0c-0.419998,0 -0.77,-0.13 -1.049999,-0.400001s-0.43,-0.59 -0.43,-0.98l0,-3.400001c0,-0.38 0.150002,-0.71 0.43,-0.98s0.630001,-0.4 1.049999,-0.4l3.77,0l0,0.01zm-4.009998,2.5l4.259998,0l0,-1.13c0,-0.07 -0.029999,-0.12 -0.080002,-0.16s-0.110001,-0.07 -0.169998,-0.07l-3.77,0c-0.07,0 -0.119999,0.03 -0.169998,0.07s-0.080002,0.11 -0.080002,0.16l0,1.13l0.010002,0zm13.349995,-1.13l0,0.23l-1.219994,0l0,-0.23c0,-0.07 -0.030006,-0.12 -0.080002,-0.16s-0.110001,-0.07 -0.169998,-0.07l-3.770004,0c-0.07,0 -0.119995,0.03 -0.169998,0.07s-0.080002,0.11 -0.080002,0.16l0,0.900001c0,0.07 0.029999,0.12 0.080002,0.16c0.050003,0.04 0.110001,0.07 0.169998,0.07l3.770004,0c0.419998,0 0.75,0.13 1.049995,0.400001c0.279999,0.27 0.43,0.589999 0.43,0.98l0,0.89c0,0.38 -0.150002,0.71 -0.43,0.98s-0.629997,0.400001 -1.049995,0.400001l-3.770004,0c-0.419998,0 -0.769997,-0.13 -1.049995,-0.400001s-0.43,-0.59 -0.43,-0.98l0,-0.23l1.239998,0l0,0.23c0,0.07 0.029999,0.12 0.080002,0.16c0.049995,0.04 0.110001,0.07 0.169998,0.07l3.769997,0c0.07,0 0.120003,-0.03 0.170006,-0.07c0.049995,-0.04 0.079994,-0.110001 0.079994,-0.16l0,-0.89c0,-0.07 -0.029999,-0.12 -0.079994,-0.16c-0.050003,-0.04 -0.110001,-0.07 -0.170006,-0.07l-3.769997,0c-0.419998,0 -0.770004,-0.13 -1.050003,-0.400001s-0.43,-0.59 -0.43,-0.98l0,-0.900001c0,-0.38 0.150002,-0.71 0.43,-0.98s0.630005,-0.4 1.050003,-0.4l3.769997,0c0.420006,0 0.75,0.13 1.050003,0.4c0.269997,0.28 0.409996,0.61 0.409996,0.98zm2.600006,-1.37l3.769997,0c0.419998,0 0.770004,0.13 1.050003,0.400001s0.43,0.589999 0.43,0.98l0,3.4c0,0.38 -0.150002,0.71 -0.43,0.98s-0.630005,0.4 -1.050003,0.4l-3.769997,0c-0.420006,0 -0.770004,-0.13 -1.050003,-0.4s-0.43,-0.59 -0.43,-0.98l0,-3.41c0,-0.38 0.150002,-0.71 0.43,-0.98c0.300003,-0.26 0.650002,-0.39 1.050003,-0.39zm3.769997,1.14l-3.769997,0c-0.07,0 -0.120003,0.03 -0.170006,0.07s-0.079994,0.11 -0.079994,0.16l0,3.400001c0,0.07 0.029999,0.12 0.079994,0.16s0.110001,0.07 0.170006,0.07l3.769997,0c0.07,0 0.120003,-0.03 0.169998,-0.07s0.080002,-0.110001 0.080002,-0.16l0,-3.400001c0,-0.07 -0.029999,-0.12 -0.080002,-0.16c-0.040001,-0.04 -0.099998,-0.07 -0.169998,-0.07zm11.120003,-1.14c0.419998,0 0.75,0.13 1.049995,0.400001c0.280006,0.27 0.43,0.589999 0.43,0.98l0,4.79l-1.220001,0l0,-4.8c0,-0.07 -0.029999,-0.12 -0.079994,-0.16s-0.110001,-0.07 -0.190002,-0.07l-2.610001,0c-0.07,0 -0.120003,0.03 -0.169998,0.07s-0.080002,0.11 -0.080002,0.16l0,4.79l-1.239998,0l0,-4.79c0,-0.07 -0.029999,-0.12 -0.080002,-0.16s-0.110001,-0.07 -0.169998,-0.07l-2.620003,0c-0.07,0 -0.119995,0.03 -0.169998,0.07c-0.050003,0.04 -0.080002,0.11 -0.080002,0.16l0,4.79l-1.239998,0l0,-6.16l8.470001,0zm7.919998,0c0.419998,0 0.769997,0.13 1.050003,0.400001s0.43,0.589999 0.43,0.98l0,2.27l-5.5,0l0,1.129999c0,0.070001 0.029999,0.120001 0.079994,0.160001c0.050003,0.04 0.110001,0.07 0.170006,0.07l5.239998,0l0,1.14l-5.239998,0c-0.420006,0 -0.770004,-0.13 -1.050003,-0.400001s-0.43,-0.59 -0.43,-0.98l0,-3.400001c0,-0.38 0.150002,-0.71 0.43,-0.98s0.629997,-0.4 1.050003,-0.4l3.769997,0l0,0.01zm-4.019997,2.5l4.259995,0l0,-1.13c0,-0.07 -0.029999,-0.12 -0.079994,-0.16s-0.110001,-0.07 -0.170006,-0.07l-3.769997,0c-0.07,0 -0.120003,0.03 -0.169998,0.07s-0.080002,0.11 -0.080002,0.16l0,1.13l0.010002,0z"/>
  <path id="svg_7" fill="#FFF" d="m46.970001,6.92c0.419998,0 0.75,0.13 1.049999,0.4c0.279999,0.27 0.43,0.59 0.43,0.98l0,4.79l-5.239998,0c-0.420002,0 -0.77,-0.13 -1.050003,-0.400001s-0.43,-0.589999 -0.43,-0.98l0,-2.27l5.5,0l0,-1.15c0,-0.07 -0.029999,-0.12 -0.079998,-0.16c-0.049999,-0.04 -0.110001,-0.07 -0.170002,-0.07l-5.239998,0l0,-1.14l5.23,0zm0.260002,5.02l0,-1.36l-4.260002,0l0,1.13c0,0.07 0.029999,0.12 0.079998,0.16s0.110001,0.07 0.170002,0.07l4.010002,0zm11.859997,-5.02l1.299999,0l-2.489998,6.17l-1,0l-2.220001,-4.59l-2.099998,4.59l-0.030003,-0.01l0.010002,0.01l-1,0l-2.600002,-6.17l1.299999,0l1.790001,4.09l1.91,-4.09l1.400002,0l2.02,4.09l1.709999,-4.09zm6.950001,0c0.419998,0 0.769997,0.13 1.050003,0.4s0.43,0.59 0.43,0.98l0,2.27l-5.500004,0l0,1.13c0,0.070001 0.029999,0.12 0.080002,0.16c0.049999,0.04 0.110001,0.070001 0.169998,0.070001l5.240002,0l0,1.139999l-5.240002,0c-0.419998,0 -0.77,-0.13 -1.049999,-0.4s-0.43,-0.59 -0.43,-0.98l0,-3.4c0,-0.38 0.150002,-0.71 0.43,-0.98s0.630001,-0.4 1.049999,-0.4l3.77,0l0,0.01zm-4.009998,2.5l4.259998,0l0,-1.13c0,-0.07 -0.029999,-0.12 -0.080002,-0.16c-0.049995,-0.04 -0.110001,-0.07 -0.169998,-0.07l-3.77,0c-0.07,0 -0.119999,0.03 -0.169998,0.07c-0.050003,0.04 -0.080002,0.11 -0.080002,0.16l0,1.13l0.010002,0zm13.349995,-1.13l0,0.23l-1.219994,0l0,-0.23c0,-0.07 -0.030006,-0.12 -0.080002,-0.16c-0.050003,-0.04 -0.110001,-0.07 -0.169998,-0.07l-3.770004,0c-0.07,0 -0.119995,0.03 -0.169998,0.07c-0.050003,0.04 -0.080002,0.11 -0.080002,0.16l0,0.9c0,0.070001 0.029999,0.120001 0.080002,0.160001s0.110001,0.07 0.169998,0.07l3.770004,0c0.419998,0 0.75,0.13 1.049995,0.4c0.279999,0.27 0.43,0.59 0.43,0.98l0,0.889999c0,0.38 -0.150002,0.71 -0.43,0.98s-0.629997,0.4 -1.049995,0.4l-3.770004,0c-0.419998,0 -0.769997,-0.13 -1.049995,-0.4s-0.43,-0.59 -0.43,-0.98l0,-0.23l1.239998,0l0,0.23c0,0.070001 0.029999,0.120001 0.080002,0.160001c0.049995,0.04 0.110001,0.07 0.169998,0.07l3.769997,0c0.07,0 0.120003,-0.03 0.170006,-0.07c0.049995,-0.04 0.079994,-0.110001 0.079994,-0.160001l0,-0.889999c0,-0.070001 -0.029999,-0.12 -0.079994,-0.16c-0.050003,-0.04 -0.110001,-0.070001 -0.170006,-0.070001l-3.769997,0c-0.419998,0 -0.770004,-0.13 -1.050003,-0.4s-0.43,-0.59 -0.43,-0.98l0,-0.9c0,-0.38 0.150002,-0.71 0.43,-0.98s0.630005,-0.4 1.050003,-0.4l3.769997,0c0.420006,0 0.75,0.13 1.050003,0.4c0.269997,0.28 0.409996,0.61 0.409996,0.98zm2.600006,-1.37l3.769997,0c0.419998,0 0.770004,0.13 1.050003,0.4s0.43,0.59 0.43,0.98l0,3.4c0,0.38 -0.150002,0.71 -0.43,0.98s-0.630005,0.4 -1.050003,0.4l-3.769997,0c-0.420006,0 -0.770004,-0.13 -1.050003,-0.4s-0.43,-0.59 -0.43,-0.98l0,-3.41c0,-0.38 0.150002,-0.71 0.43,-0.98c0.300003,-0.26 0.650002,-0.39 1.050003,-0.39zm3.769997,1.14l-3.769997,0c-0.07,0 -0.120003,0.03 -0.170006,0.07c-0.049995,0.04 -0.079994,0.11 -0.079994,0.16l0,3.4c0,0.070001 0.029999,0.120001 0.079994,0.160001s0.110001,0.07 0.170006,0.07l3.769997,0c0.07,0 0.120003,-0.03 0.169998,-0.07s0.080002,-0.110001 0.080002,-0.160001l0,-3.4c0,-0.07 -0.029999,-0.12 -0.080002,-0.16c-0.040001,-0.04 -0.099998,-0.07 -0.169998,-0.07zm11.120003,-1.14c0.419998,0 0.75,0.13 1.049995,0.4c0.280006,0.27 0.43,0.59 0.43,0.98l0,4.79l-1.220001,0l0,-4.8c0,-0.07 -0.029999,-0.12 -0.079994,-0.16c-0.050003,-0.04 -0.110001,-0.07 -0.190002,-0.07l-2.610001,0c-0.07,0 -0.120003,0.03 -0.169998,0.07c-0.050003,0.04 -0.080002,0.11 -0.080002,0.16l0,4.79l-1.239998,0l0,-4.79c0,-0.07 -0.029999,-0.12 -0.080002,-0.16c-0.050003,-0.04 -0.110001,-0.07 -0.169998,-0.07l-2.620003,0c-0.07,0 -0.119995,0.03 -0.169998,0.07c-0.050003,0.04 -0.080002,0.11 -0.080002,0.16l0,4.79l-1.239998,0l0,-6.16l8.470001,0zm7.919998,0c0.419998,0 0.769997,0.13 1.050003,0.4s0.43,0.59 0.43,0.98l0,2.27l-5.5,0l0,1.13c0,0.070001 0.029999,0.12 0.079994,0.16c0.050003,0.04 0.110001,0.070001 0.170006,0.070001l5.239998,0l0,1.139999l-5.239998,0c-0.420006,0 -0.770004,-0.13 -1.050003,-0.4s-0.43,-0.59 -0.43,-0.98l0,-3.4c0,-0.38 0.150002,-0.71 0.43,-0.98s0.629997,-0.4 1.050003,-0.4l3.769997,0l0,0.01zm-4.019997,2.5l4.259995,0l0,-1.13c0,-0.07 -0.029999,-0.12 -0.079994,-0.16c-0.050003,-0.04 -0.110001,-0.07 -0.170006,-0.07l-3.769997,0c-0.07,0 -0.120003,0.03 -0.169998,0.07c-0.050003,0.04 -0.080002,0.11 -0.080002,0.16l0,1.13l0.010002,0z"/>
  <path id="svg_8" d="m26.57,9.76l-4.91,-4.5l-0.690001,0.75l4.09,3.75l-16.12,0l4.09,-3.75l-0.69,-0.75l-4.91,4.5l0,2.969999c0,1.34 1.29,2.43 2.880001,2.43l3.03,0c1.59,0 2.879999,-1.09 2.879999,-2.43l0,-1.95l1.570002,0l0,1.95c0,1.34 1.289999,2.43 2.879999,2.43l3.030001,0c1.59,0 2.879999,-1.09 2.879999,-2.43l-0.01,-2.969999z" fill="#DDA4CA"/>
  <path id="svg_9" d="m26.57,9.34l-4.91,-4.5l-0.690001,0.75l4.09,3.75l-16.12,0l4.09,-3.75l-0.69,-0.75l-4.91,4.5l0,2.97c0,1.339999 1.29,2.429999 2.880001,2.429999l3.03,0c1.59,0 2.879999,-1.09 2.879999,-2.429999l0,-1.950001l1.570002,0l0,1.950001c0,1.339999 1.289999,2.429999 2.879999,2.429999l3.030001,0c1.59,0 2.879999,-1.09 2.879999,-2.429999l-0.01,-2.97z" fill="#261120"/>
 </g>
</svg>