<svg width="110" height="20" xmlns="http://www.w3.org/2000/svg">
 <!-- Created by Sindre Sorhus -->
 <defs>
  <filter id="a" filterUnits="userSpaceOnUse" x="0" y="0" width="111" height="20"/>
  <linearGradient id="c" x1="0.499622" y1="0" x2="0.499622" y2="1">
   <stop offset="0" stop-color="#BBB" stop-opacity="0.1"/>
   <stop offset="1" stop-opacity="0.1"/>
  </linearGradient>
  <linearGradient id="svg_42" x1="0" y1="0" x2="0.628906" y2="0.294531">
   <stop stop-color="#ffffff" offset="0"/>
   <stop stop-color="#000000" offset="1"/>
  </linearGradient>
  <radialGradient id="svg_56" spreadMethod="pad" cx="0.5" cy="0.5" r="1.623161">
   <stop stop-color="#191919" stop-opacity="0.996094" offset="0"/>
   <stop stop-color="#3f007f" stop-opacity="0.996094" offset="1"/>
  </radialGradient>
  <radialGradient cy="0.5" cx="0.5" gradientTransform="rotate(1.862068965517245,0.5,0.5) translate(0,0.34827586206896555) scale(1,0.3034482758620689)" r="0.949076" spreadMethod="pad" id="svg_14">
   <stop offset="0" stop-color="#e86868"/>
   <stop offset="1" stop-opacity="0.996094" stop-color="#ffaaaa"/>
  </radialGradient>
 </defs>
 <mask maskUnits="userSpaceOnUse" x="0" y="0" width="111" height="20" id="b">
  <path fill="#FFF" filter="url(#a)" d="m3,0l104,0c1.660004,0 3,1.34 3,3l0,14c0,1.66 -1.339996,3 -3,3l-104,0c-1.66,0 -3,-1.34 -3,-3l0,-14c0,-1.66 1.34,-3 3,-3z" id="svg_1"/>
 </mask>
 <g>
  <title>background</title>
  <rect x="-1" y="-1" width="112" height="22" id="canvas_background" fill="none"/>
 </g>
 <g>
  <title>Layer 1</title>
  <rect fill-opacity="0.95" fill="url(#svg_14)" stroke="#ffffff" stroke-width="null" x="-1.249991" y="-6.443545" width="47.624427" height="32.749606" id="svg_53" rx="11"/>
  <rect fill="#333333" stroke="null" stroke-width="null" stroke-opacity="null" x="41.06247" y="-4.068787" width="70.125198" height="29.500084" id="svg_41" rx="6"/>
  <g mask="url(#b)" id="svg_2">
   <path fill="#CCA6C4" d="m21.499929,-22.24995l33.99999,0l0,20l-33.99999,0l0,-20z" id="svg_3"/>
   <path fill="#494368" d="m55.49992,-22.24995l77.000004,0l0,20l-77.000004,0l0,-20z" id="svg_4"/>
   <path fill="url(#c)" d="m21.499929,-22.24995l110.999994,0l0,20l-110.999994,0l0,-20z" id="svg_5"/>
  </g>
  <path fill="#191919" stroke="#ffaaaa" stroke-width="null" id="svg_26" d="m20.329901,5.80909c-0.1366,0 -0.1366,0 -0.273201,0c-0.13661,0 -0.13661,0 -0.273211,0c-0.273209,0 -0.409809,0 -0.54641,0c-0.13661,0 -0.273211,0 -0.409809,0c-0.13661,0 -0.409811,0 -0.546421,0c0,0 -0.136599,0 -0.409809,0.12642c0,0 -0.1366,0 -0.273201,0c-0.13661,0 -0.231329,0.058 -0.409809,0.12642c-0.126211,0.04838 -0.273211,0 -0.273211,0c-0.273211,0.12642 -0.273211,0.12642 -0.409809,0.12642c-0.1366,0 -0.176611,0.03703 -0.273211,0.12642c-0.09659,0.08939 -0.2732,0 -0.40981,0c-0.1366,0 -0.40981,0.12642 -0.40981,0.12642c-0.1366,0 -0.2836,-0.04838 -0.40981,0c-0.17848,0.06842 -0.1366,0.12642 -0.40981,0.12642c0,0 -0.1366,0.12642 -0.1366,0.12642c-0.1366,0 -0.273211,0 -0.273211,0c0,0.12642 -0.1366,0.12642 -0.2732,0.12642c0,0 -0.13661,0.12642 -0.13661,0.12642c-0.1366,0 -0.1366,0.12642 -0.2732,0.12642c0,0 -0.13661,0.12642 -0.13661,0.12642c0,0 -0.040009,0.03703 -0.1366,0.12642c-0.09659,0.08939 -0.1366,0 -0.1366,0.12642c0,0 -0.13661,0 -0.13661,0.12642c0,0 0,0 -0.1366,0c0,0 0,0.12642 0,0.12642c-0.1366,0 -0.1366,0 -0.1366,0c0,0.12642 0,0.12642 -0.13661,0.12642c0,0 0,0.12642 0,0.12642c-0.1366,0 -0.1366,0 -0.1366,0c0,0.12642 0,0.12642 0,0.12642c-0.1366,0 -0.1366,0 -0.1366,0c0,0.12642 0,0.12642 0,0.12642c0,0.12642 -0.1366,0.12642 -0.1366,0.12642c0,0 0.09659,0.03703 0,0.12642c-0.0966,0.0894 -0.13661,0 -0.13661,0c0,0.12642 -0.040009,0.03703 -0.1366,0.12642c-0.09659,0.0894 0,0.12642 0,0.12642c0,0 0,0.12642 -0.1366,0.12642c0,0 0,0 0,0c0,0.12642 -0.13661,0.12642 -0.13661,0.12642c0,0.12643 0,0.12643 0,0.12643c-0.1366,0 -0.1366,0.12642 -0.1366,0.12642c0,0 -0.1366,0 -0.1366,0.12642c0,0 0,0 0,0.12642c0,0 -0.13661,0 -0.13661,0c0,0.12642 0,0.12642 -0.1366,0.25284c0,0 0,0 0,0c0,0.12642 0,0.12642 -0.1366,0.25284c0,0 0.09659,0.03703 0,0.12642c-0.0966,0.08939 -0.1366,0.12642 -0.1366,0.12642c0,0.12642 -0.13661,0.12642 -0.13661,0.25284c0,0 0,0.12642 0,0.12642c0,0 -0.1366,0.12642 -0.1366,0.12642c0,0.12642 -0.1366,0.12642 -0.1366,0.25284c0,0 0,0 -0.13661,0.12642c0,0 0,0.12642 0,0.12642c-0.1366,0.12642 -0.1366,0.12642 -0.1366,0.12642c0,0.12642 0,0.12642 -0.1366,0.25284c0,0 0,0.12642 0,0.12642c-0.13661,0.12643 -0.13661,0.12643 -0.13661,0.12643c0,0.12642 -0.1366,0.12642 -0.1366,0.25284c0,0 -0.1366,0 -0.1366,0.12642c0,0 -0.1366,0.12642 -0.1366,0.12642c-0.13661,0.12642 -0.04001,0.16344 -0.13661,0.25284c-0.09659,0.08939 -0.17661,0.03703 -0.2732,0.12642c-0.096601,0.08939 -0.13661,0.12642 -0.273211,0.25284c0,0 -0.1366,0.12642 -0.1366,0.12642c-0.13661,0.12642 -0.13661,0.12642 -0.273211,0.25284c0,0 -0.13661,0.12642 -0.13661,0.12642c-0.1366,0 -0.1366,0.12642 -0.1366,0.12642c-0.1366,0.12642 -0.1366,0.12642 -0.2732,0.12642c0,0 0,0.12642 -0.13661,0.12642c0,0 0,0.12642 -0.1366,0.12642c0,0 -0.04001,0.03703 -0.1366,0.12642c-0.0966,0.0894 -0.13661,0 -0.27321,0.12642c0,0 -0.1366,0 -0.1366,0.12642c0,0 -0.13661,0 -0.13661,0c0,0 -0.1366,0.12642 -0.1366,0.12642c-0.1366,0 -0.17661,-0.08939 -0.27321,0c-0.09659,0.089399 0,0.12643 -0.1366,0.12643c0,0 -0.1366,0 -0.1366,0c-0.13661,0 -0.13661,0 -0.13661,0c-0.1366,0 -0.2732,0 -0.2732,0c0,0.12642 -0.13661,0.12642 -0.13661,0.12642c-0.1366,0 -0.2732,0 -0.2732,0c-0.13661,0 -0.13661,0 -0.27321,0c0,0 -0.1366,0 -0.1366,0c0,0 -0.13661,0 -0.13661,0c0,0 -0.1366,0 -0.1366,0c0,0 0,0 -0.1366,0c0,0 0,0 -0.13661,0c0,0 0,0 0,0c-0.1366,0 -0.1366,0 -0.1366,0c0,0 -0.1366,0 -0.1366,0c0,0 0,0 -0.1366,0c0,0 0,0 0.1366,0c0,0 0,0 0,0c0.1366,0 0.1366,0 0.1366,0c0,0 0.1366,0 0.1366,0c0,0 0,0 0.13661,0c0,0 0,0 0,0c0.1366,0 0.1366,0 0.1366,0c0.1366,0 0.1366,0 0.1366,0c0,0 0.13661,0 0.13661,0c0,0 0,0 0.1366,0c0,0 0,0 0.1366,0c0,0 0,0.12642 0,0.12642c0.13661,0 0.13661,0 0.13661,0c0,0 0.1366,0 0.1366,0c0,0 0.1366,0 0.1366,0c0,0 0.1366,0 0.1366,0c0.13661,0.12642 0.27321,0.12642 0.27321,0.12642c0.1366,0 0.17662,0.03702 0.27321,0.12642c0.09659,0.08939 0.27321,0 0.27321,0c0.1366,0.12642 0.2732,0.12642 0.2732,0.12642c0,0 0.04001,0.03702 0.13661,0.12642c0.09659,0.08939 0.1366,0 0.2732,0c0,0 0.13661,0 0.13661,0c0,0.12642 0.1366,0.12642 0.1366,0.12642c0.1366,0 0.147,-0.04838 0.27321,0c0.17848,0.06842 0.1366,0.12642 0.2732,0.12642c0,0 0.1366,0 0.27321,0c0.1366,0 0.1366,0.12642 0.273211,0.12642c0.1366,0 0.1366,0 0.2732,0c0.13661,0 0.13661,0 0.27321,0c0.1366,0 0.1366,0 0.273211,0c0,0 0.1366,0.12642 0.2732,0.12642c0.136609,0 0.136609,0 0.27321,0c0.1366,0 0.27321,0 0.27321,0c0.1366,0 0.273211,0 0.273211,0c0.1366,0.126421 0.2732,0.126421 0.40981,0.126421c0.1366,0 0.1366,0 0.2732,0c0.13661,0 0.27321,0 0.40981,0c0,0 0.27321,0 0.40981,0c0.13661,0 0.27321,0 0.40981,0c0.13661,0 0.13661,0 0.409809,0c0.13661,0 0.13661,0 0.40981,0c0,0 0.13661,0 0.273211,0c0.1366,0 0.1366,0 0.27321,0c0,0 0.1366,0 0.2732,0c0,0 0,0 0.13661,0c0.1366,0 0.1366,0 0.2732,0c0,0 0.13661,0 0.273211,0c0,0 0.1366,0 0.27321,0c0,0 0.1366,0 0.2732,0c0.13661,0 0.13661,0 0.40981,0c0,0 0.13661,0 0.27321,0c0.1366,0 0.1366,0 0.27321,0c0,0 0.1366,0 0.1366,0c0,0 0.13661,0 0.13661,0c0.1366,0 0.1366,0 0.273201,0c0,0 0.136599,0 0.136599,0c0.13661,0 0.13661,0 0.273211,-0.126421c0,0 0.13661,0 0.13661,0c0.1366,0 0.1366,0 0.273201,-0.12642c0,0 0.136599,0 0.136599,0c0.13661,0 0.04001,-0.03703 0.13661,-0.12642c0.09659,-0.08939 0.1366,0 0.1366,0c0.1366,0 0.17662,0.08939 0.273211,0c0.09659,-0.08939 0,-0.12642 0,-0.12642c0.1366,0 0.1366,0 0.1366,0c0.136599,-0.12642 0.136599,-0.12642 0.136599,-0.12642c0,0 0.13661,0 0.13661,0c0.1366,-0.12642 0.1366,-0.12642 0.1366,-0.12642c0,0 0.04001,-0.03703 0.1366,-0.12642c0.0966,-0.0894 0.13661,0 0.13661,0c0,0 0.136599,0 0.136599,-0.12642c0,0 0.1366,0 0.1366,0c0,0 0,0 0,0c0.13661,-0.12642 0.13661,-0.12642 0.13661,-0.12642c0,0 0.04001,0.08939 0.1366,0c0.09659,-0.089399 0,-0.12642 0,-0.12642c0.1366,0 0.1366,0 0.1366,0c0,0 0,-0.12642 0.136599,-0.12642c0,0 0,0 0,0c0,-0.12643 0.13661,-0.12643 0.13661,-0.12643c0,0 0,0 0,0c0,0 0,-0.12642 0.1366,-0.12642c0,0 0,0 0,0c0,0 0,-0.12642 0,-0.12642c0.1366,0 0.1366,0 0.1366,0c0,0 0.13661,0 0.13661,-0.12642c0,0 0,0 0.1366,0c0,0 0,-0.12642 0,-0.12642c0,0 0,0 0.136599,0c0,0 0,0 0,0c0,0 0.04001,0.0894 0.13661,0c0.09659,-0.08939 0,-0.12642 0,-0.12642c0,0 0.1366,0 0.1366,0c0,0 0,0 0.1366,0c0,0 0,0 0,0c0.1366,0 0.1366,0 0.1366,0c0,0 0.13661,0 0.13661,0c0,0 0,0 0.136599,0c0,0 0,0 0,0c0.1366,0 0.1366,0.12642 0.1366,0.12642c0,0 0.13661,0 0.13661,0c0,0 0,0 0.1366,0c0,0 0.040009,-0.08939 0.136599,0c0.096601,0.0894 0,0.12642 0,0.12642c0.13661,0 0.13661,0 0.13661,0c0,0 0.1366,0.12642 0.1366,0.12642c0,0 0.1366,0 0.1366,0c0,0 0,0 0,0c0.13661,0 0.13661,0.12642 0.13661,0.12642c0,0 0.1366,0 0.1366,0c0,0 0,0 0,0c0,0.12642 0.136599,0.12642 0.136599,0.12642c0,0 0,0 0.1366,0c0,0 0,0 0,0.12643c0,0 0,0 0.13661,0c0,0 0,0 0,0c0,0 0.1366,0.12642 0.1366,0.12642c0,0 0.1366,0 0.1366,0.12642c0,0 0.13661,0 0.13661,0c0.136599,0 0.136599,0.12642 0.273199,0.12642c0,0 0.13661,0.12642 0.13661,0.12642c0.1366,0 0.1366,0.12642 0.273201,0.12642c0.13661,0 0.13661,0.12642 0.273209,0.12642c0.1366,0 0.09473,0.058001 0.273211,0.12642c0.1262,0.04838 0.176609,-0.08939 0.273199,0c0.096601,0.08939 0.13661,0.12642 0.13661,0.12642c0,0 0.1366,0 0.1366,0c0.1366,0 0.04001,0.03703 0.1366,0.12642c0.0966,0.08939 0.17662,-0.08939 0.273211,0c0.09659,0.08939 0.136599,0.12642 0.136599,0.12642c0.13661,0 0.273211,0 0.273211,0c0.1366,0.126421 0.1366,0.126421 0.273211,0.126421c0,0 0.1366,0 0.1366,0c0.136599,0.126419 0.136599,0.126419 0.136599,0.126419c0.13661,0 0.13661,0 0.13661,0c0.1366,0 0.1366,0 0.273201,0.126419c0,0 0.13661,0 0.13661,0c0.1366,0 0.1366,0 0.273199,0c0.13661,0 0.13661,0 0.13661,0c0.1366,0 0.1366,0 0.273201,0c0,0 0.040009,0.037031 0.13661,0.126421c0.09659,0.08939 0.136599,0 0.273199,0c0,0 0.13661,0 0.13661,0c0.1366,0 0.1366,0 0.273201,0c0.13661,0 0.273209,0 0.273209,0c0.1366,0.126419 0.273211,0.126419 0.409811,0.126419c0.273211,0 0.409809,0 0.54641,0c0.13661,0 0.273211,0 0.409811,0c0.136608,0 0.273209,0.126421 0.273209,0.126421c0.1366,0 0.273211,0 0.409811,0c0,0 0.136599,0 0.273209,0c0,0 0.1366,0 0.273201,0c0.13661,0 0.13661,0 0.273211,0c0.136599,0 0.136599,0 0.273211,0c0.1366,0 0.273209,0 0.409809,0c0,0 0.1366,0 0.273209,0c0.1366,0 0.273201,0 0.273201,0c0.136612,0 0.273209,0 0.273209,0c0.1366,0 0.1366,0 0.273212,0c0.1366,0 0.1366,0 0.273197,0c0,0 0,0 0.136612,0c0.1366,0 0.1366,0 0.273201,0c0,0 0.136608,-0.126421 0.273209,-0.126421c0,0 0.1366,0 0.273209,0c0,0 0.1366,-0.126419 0.273212,-0.126419c0,0 0.040009,-0.037029 0.1366,-0.126421c0.096588,-0.08939 0.1366,0 0.273209,0c0,0 0.1366,0 0.1366,0c0,0 0,-0.126419 0.1366,-0.126419c0,0 0,0 0.1366,0c0,0 0,-0.126419 0,-0.126419c0.136608,0 0.136608,0 0.136608,0c0,0 0.1366,0.126419 0.1366,0c0,-0.126421 -0.1366,0 -0.1366,0c0,0 0,-0.126421 -0.136608,-0.126421c0,0 -0.040012,0.08939 -0.1366,0c-0.096592,-0.08939 -0.1366,-0.12642 -0.273212,-0.25284c0,0 -0.040009,-0.03703 -0.136597,-0.12642c-0.096592,-0.08939 -0.273201,-0.12642 -0.273201,-0.12642c-0.136612,-0.12642 -0.17662,-0.16345 -0.273212,-0.25284c-0.0966,-0.0894 -0.136608,-0.12642 -0.136608,-0.12642c-0.1366,0 -0.176609,-0.03703 -0.273201,-0.12642c-0.096588,-0.089399 0,-0.12642 -0.136608,-0.25284c0,0 -0.1366,-0.12643 -0.1366,-0.12643c0,-0.12642 -0.1366,-0.12642 -0.1366,-0.12642c0,-0.12642 -0.1366,-0.12642 -0.1366,-0.25284c0,0 -0.136608,0 -0.136608,-0.12642c0,0 0,0 -0.1366,-0.12642c0,0 0.096588,-0.03702 0,-0.12642c-0.096592,-0.08939 -0.1366,-0.12642 -0.1366,-0.12642c-0.136612,0 -0.136612,-0.12642 -0.136612,-0.12642c0,0 0,-0.12642 -0.136597,-0.12642c0,0 0,-0.12642 0,-0.12642c0,-0.12642 -0.1366,-0.12642 -0.1366,-0.12642c0,-0.12642 0.096588,-0.16345 0,-0.25284c-0.0966,-0.08939 -0.1366,0 -0.1366,-0.12642c0,0 0.096588,-0.03703 0,-0.12642c-0.0966,-0.0894 -0.136612,0 -0.136612,-0.12642c0,-0.12642 0,-0.12642 -0.1366,-0.25284c0,0 0,-0.12642 0,-0.25284c0,0 -0.040009,-0.03703 -0.136608,-0.12642c-0.096592,-0.089399 0,-0.12643 0,-0.12643c0,0 0,-0.12642 0,-0.12642c0,-0.12642 0,-0.12642 0,-0.25284c0,0 -0.1366,0 -0.1366,-0.12642c0,0 0,0 0,0c0,-0.12642 0,-0.12642 0,-0.12642c-0.1366,-0.12642 -0.1366,-0.12642 -0.1366,-0.12642c0,-0.12642 0,-0.12642 0,-0.12642c0,0 0,-0.12642 0,-0.12642c0,0 0,0 0,0c-0.1366,-0.12642 -0.1366,-0.12642 -0.1366,-0.12642c0,-0.12642 0,-0.12642 0,-0.12642c0,0 -0.136608,-0.12642 -0.136608,-0.12642c0,0 0,-0.12642 0,-0.12642c0,0 0,0 0,-0.12642c0,0 -0.1366,-0.12642 -0.1366,-0.12642c0,0 0,0 0,-0.12642c0,0 -0.1366,-0.12642 -0.1366,-0.12642c0,-0.12642 0,-0.12642 0,-0.12642c0,-0.12642 0,-0.12642 -0.13661,-0.25284c0,0 0,-0.12642 0,-0.25284c0,0 -0.1366,0 -0.1366,0c0,-0.12643 0,-0.12643 0,-0.25285c0,0 -0.040009,0.0894 -0.136599,0c-0.096601,-0.08939 0,-0.12642 0,-0.12642c0,-0.12642 -0.1366,-0.12642 -0.1366,-0.25284c0,0 0,0 0,0c-0.13661,-0.12642 -0.13661,-0.12642 -0.13661,-0.12642c0,0 -0.04001,-0.03702 -0.1366,-0.12642c-0.09659,-0.08939 0,-0.12642 0,-0.12642c0,-0.12642 -0.1366,-0.12642 -0.1366,-0.12642c0,0 -0.13661,-0.12642 -0.13661,-0.12642c0,0 0,0 0,0c0,-0.12642 -0.136599,-0.12642 -0.136599,-0.12642c0,-0.12642 0,-0.12642 -0.1366,-0.25284c0,0 0,0 -0.13661,-0.12642c0,0 0,0 -0.1366,-0.12642c0,0 -0.136599,-0.12642 -0.136599,-0.12642c-0.13661,0 -0.13661,-0.12642 -0.13661,-0.12642c-0.1366,-0.12642 -0.147001,-0.07804 -0.273201,-0.12642c-0.17848,-0.06842 -0.17662,-0.03703 -0.273211,-0.12642c-0.09659,-0.08939 -0.040009,-0.03703 -0.136599,-0.12642c-0.096601,-0.08939 -0.13661,-0.12642 -0.13661,-0.12642c-0.1366,0 -0.1366,0 -0.273201,-0.12642c0,0 -0.13661,0 -0.13661,0c-0.1366,-0.12642 -0.1366,-0.12642 -0.1366,-0.12642c-0.136599,-0.12642 -0.136599,-0.12642 -0.273209,-0.12642c0,0 -0.1366,0 -0.1366,0c-0.1366,-0.12642 -0.1366,-0.12642 -0.1366,-0.12642c-0.1366,0 -0.1366,0 -0.273211,-0.12642c0,0 -0.136599,0 -0.136599,0c0,0 -0.04001,-0.03703 -0.13661,-0.12642c-0.09659,-0.08939 -0.1366,0 -0.273201,0c0,0 -0.136599,0 -0.136599,0c-0.13661,0 -0.13661,0 -0.13661,0c-0.1366,0 -0.1366,0 -0.273211,-0.12642c0,0 -0.1366,0 -0.1366,0c-0.1366,0 -0.1366,0 -0.1366,0c-0.136599,0 -0.273209,0 -0.273209,0c-0.1366,0 -0.1366,0 -0.409811,0c0,0 -0.1366,0 -0.273199,0c-0.13661,0 -0.13661,0 -0.273211,0c-0.13661,0 -0.273211,0 -0.409811,0c-0.136599,0 -0.273209,0 -0.273209,0c-0.1366,0 -0.273211,0 -0.273211,0c-0.1366,0 -0.273199,0 -0.273199,0c-0.13661,0 -0.273211,0 -0.273211,0c-0.1366,0 -0.273211,0 -0.273211,0c-0.1366,0 -0.273199,0 -0.409809,0c0,0 -0.1366,0 -0.273201,0c-0.13661,0 -0.13661,0 -0.273211,0c-0.136599,0 -0.273209,0 -0.409809,0c0,0 0,0 -0.1366,0c-0.13661,0 -0.13661,0 -0.273211,0c0,0 -0.136599,0 -0.136599,0c-0.13661,0 -0.13661,0 -0.273211,0c0,0 0,0 -0.13661,0c0,0 0,0 -0.1366,0c0,0 0,0 -0.136599,0c0,0 0,0 -0.1366,0c0,0 0,0 0,0c0,0 -0.13661,0 -0.13661,0c0,0 0,0.12642 0,0.12642c-0.1366,0 -0.1366,0 -0.1366,0l-0.409809,0.12642"/>
  <text fill="#000000" stroke="null" stroke-width="0" stroke-opacity="null" x="-1.150357" y="-8.262942" id="svg_39" font-size="24" font-family="Georgia, Times, 'Times New Roman', serif" text-anchor="start" xml:space="preserve" transform="matrix(0.814019, 0, 0, 0.638969, 44.6826, 20.5623)">explain</text>
  <rect fill="url(#svg_42)" stroke="null" stroke-width="null" stroke-opacity="null" fill-opacity="0.62" x="67.437544" y="18.056276" width="3.000009" height="0" id="svg_43"/>
  <text fill="#ffffff" stroke="null" stroke-width="0" stroke-opacity="null" x="-0.075433" y="-10.347115" id="svg_47" font-size="24" font-family="Georgia, Times, 'Times New Roman', serif" text-anchor="start" xml:space="preserve" transform="matrix(0.814019, 0, 0, 0.652025, 44.6826, 21.0758)">explain</text>
  <rect fill="url(#svg_56)" stroke="#ffaaaa" stroke-width="null" stroke-opacity="null" x="44.812627" y="31.180993" width="0" height="0.124998" id="svg_54"/>
 </g>
</svg>