<svg width="110" height="20" xmlns="http://www.w3.org/2000/svg">
 <!-- Created by Sindre Sorhus -->
 <defs>
  <filter height="20" width="111" y="0" x="0" filterUnits="userSpaceOnUse" id="a"/>
  <linearGradient y2="1" x2="0.499622" y1="0" x1="0.499622" id="c">
   <stop stop-opacity="0.1" stop-color="#BBB" offset="0"/>
   <stop stop-opacity="0.1" offset="1"/>
  </linearGradient>
  <linearGradient y2="0.294531" x2="0.628906" y1="0" x1="0" id="svg_42">
   <stop offset="0" stop-color="#ffffff"/>
   <stop offset="1" stop-color="#000000"/>
  </linearGradient>
  <radialGradient r="1.623161" cy="0.5" cx="0.5" spreadMethod="pad" id="svg_56">
   <stop offset="0" stop-opacity="0.996094" stop-color="#191919"/>
   <stop offset="1" stop-opacity="0.996094" stop-color="#3f007f"/>
  </radialGradient>
  <radialGradient r="0.761094" spreadMethod="pad" id="svg_57">
   <stop offset="0" stop-opacity="0.996094" stop-color="#191919"/>
   <stop offset="1" stop-opacity="0.996094" stop-color="#3f007f"/>
  </radialGradient>
 </defs>
 <mask id="b" height="20" width="111" y="0" x="0" maskUnits="userSpaceOnUse">
  <path id="svg_1" d="m3,0l104,0c1.660004,0 3,1.34 3,3l0,14c0,1.66 -1.339996,3 -3,3l-104,0c-1.66,0 -3,-1.34 -3,-3l0,-14c0,-1.66 1.34,-3 3,-3z" filter="url(#a)" fill="#FFF"/>
 </mask>
 <g>
  <title>background</title>
  <rect fill="none" id="canvas_background" height="21" width="152" y="-1" x="-1"/>
 </g>
 <g>
  <title>Layer 1</title>
  <rect rx="11" id="svg_53" height="32.749606" width="47.624427" y="-6.443545" x="-1.249991" stroke-width="null" stroke="#ffffff" fill="url(#svg_57)"/>
  <rect rx="6" id="svg_41" height="29.500084" width="70.125198" y="-4.068787" x="41.06247" stroke-opacity="null" stroke-width="null" stroke="null" fill="#333333"/>
  <g id="svg_2" mask="url(#b)">
   <path id="svg_3" d="m21.499926,-22.249949l33.999998,0l0,20l-33.999998,0l0,-20z" fill="#CCA6C4"/>
   <path id="svg_4" d="m55.499924,-22.249949l77,0l0,20l-77,0l0,-20z" fill="#494368"/>
   <path id="svg_5" d="m21.499926,-22.249949l110.999998,0l0,20l-110.999998,0l0,-20z" fill="url(#c)"/>
  </g>
  <path d="m20.329905,5.809091c-0.136604,0 -0.136604,0 -0.273207,0c-0.136604,0 -0.136604,0 -0.273207,0c-0.273207,0 -0.409811,0 -0.546413,0c-0.136604,0 -0.273207,0 -0.409811,0c-0.136602,0 -0.409809,0 -0.546413,0c0,0 -0.136602,0 -0.409809,0.12642c0,0 -0.136604,0 -0.273207,0c-0.136604,0 -0.231329,0.058002 -0.409811,0.12642c-0.126205,0.048379 -0.273207,0 -0.273207,0c-0.273207,0.12642 -0.273207,0.12642 -0.409809,0.12642c-0.136604,0 -0.176615,0.037027 -0.273207,0.12642c-0.096594,0.089393 -0.273208,0 -0.409811,0c-0.136603,0 -0.40981,0.12642 -0.40981,0.12642c-0.136603,0 -0.283605,-0.048379 -0.40981,0c-0.178481,0.068419 -0.136603,0.12642 -0.40981,0.12642c0,0 -0.136603,0.12642 -0.136603,0.12642c-0.136603,0 -0.273207,0 -0.273207,0c0,0.12642 -0.136603,0.12642 -0.273207,0.12642c0,0 -0.136603,0.12642 -0.136603,0.12642c-0.136603,0 -0.136603,0.12642 -0.273207,0.12642c0,0 -0.136603,0.12642 -0.136603,0.12642c0,0 -0.04001,0.037027 -0.136603,0.12642c-0.096593,0.089393 -0.136603,0 -0.136603,0.12642c0,0 -0.136603,0 -0.136603,0.12642c0,0 0,0 -0.136603,0c0,0 0,0.12642 0,0.12642c-0.136603,0 -0.136603,0 -0.136603,0c0,0.12642 0,0.12642 -0.136603,0.12642c0,0 0,0.12642 0,0.12642c-0.136603,0 -0.136603,0 -0.136603,0c0,0.12642 0,0.12642 0,0.12642c-0.136603,0 -0.136603,0 -0.136603,0c0,0.126421 0,0.126421 0,0.126421c0,0.12642 -0.136603,0.12642 -0.136603,0.12642c0,0 0.096593,0.037027 0,0.12642c-0.096593,0.089394 -0.136603,0 -0.136603,0c0,0.126421 -0.04001,0.037028 -0.136603,0.126421c-0.096593,0.089393 0,0.12642 0,0.12642c0,0 0,0.126421 -0.136603,0.126421c0,0 0,0 0,0c0,0.12642 -0.136603,0.12642 -0.136603,0.12642c0,0.126421 0,0.126421 0,0.126421c-0.136603,0 -0.136603,0.12642 -0.136603,0.12642c0,0 -0.136603,0 -0.136603,0.126421c0,0 0,0 0,0.12642c0,0 -0.136603,0 -0.136603,0c0,0.12642 0,0.12642 -0.136603,0.252841c0,0 0,0 0,0c0,0.12642 0,0.12642 -0.136603,0.252841c0,0 0.096593,0.037027 0,0.12642c-0.096594,0.089394 -0.136603,0.126421 -0.136603,0.126421c0,0.12642 -0.136603,0.12642 -0.136603,0.252841c0,0 0,0.12642 0,0.12642c0,0 -0.136603,0.126421 -0.136603,0.126421c0,0.12642 -0.136603,0.12642 -0.136603,0.25284c0,0 0,0 -0.136603,0.126421c0,0 0,0.12642 0,0.12642c-0.136603,0.126421 -0.136603,0.126421 -0.136603,0.126421c0,0.12642 0,0.12642 -0.136603,0.252841c0,0 0,0.12642 0,0.12642c-0.136603,0.126421 -0.136603,0.126421 -0.136603,0.126421c0,0.12642 -0.136603,0.12642 -0.136603,0.252841c0,0 -0.136603,0 -0.136603,0.12642c0,0 -0.136603,0.12642 -0.136603,0.12642c-0.136603,0.126421 -0.04001,0.163448 -0.136603,0.252841c-0.096594,0.089394 -0.176614,0.037028 -0.273207,0.126421c-0.096594,0.089393 -0.136603,0.12642 -0.273207,0.252841c0,0 -0.136603,0.12642 -0.136603,0.12642c-0.136603,0.126421 -0.136603,0.126421 -0.273208,0.252841c0,0 -0.136603,0.126421 -0.136603,0.126421c-0.136603,0 -0.136603,0.12642 -0.136603,0.12642c-0.136603,0.12642 -0.136603,0.12642 -0.273206,0.12642c0,0 0,0.126421 -0.136603,0.126421c0,0 0,0.12642 -0.136603,0.12642c0,0 -0.04001,0.037028 -0.136603,0.126421c-0.096593,0.089393 -0.136603,0 -0.273207,0.12642c0,0 -0.136603,0 -0.136603,0.126421c0,0 -0.136603,0 -0.136603,0c0,0 -0.136603,0.12642 -0.136603,0.12642c-0.136603,0 -0.176614,-0.089393 -0.273207,0c-0.096593,0.089393 0,0.126421 -0.136603,0.126421c0,0 -0.136604,0 -0.136604,0c-0.136603,0 -0.136603,0 -0.136603,0c-0.136603,0 -0.273207,0 -0.273207,0c0,0.12642 -0.136603,0.12642 -0.136603,0.12642c-0.136603,0 -0.273207,0 -0.273207,0c-0.136603,0 -0.136603,0 -0.273207,0c0,0 -0.136603,0 -0.136603,0c0,0 -0.136603,0 -0.136603,0c0,0 -0.136603,0 -0.136603,0c0,0 0,0 -0.136603,0c0,0 0,0 -0.136603,0c0,0 0,0 0,0c-0.136603,0 -0.136603,0 -0.136603,0c0,0 -0.136603,0 -0.136603,0c0,0 0,0 -0.136603,0c0,0 0,0 0.136603,0c0,0 0,0 0,0c0.136603,0 0.136603,0 0.136603,0c0,0 0.136603,0 0.136603,0c0,0 0,0 0.136603,0c0,0 0,0 0,0c0.136603,0 0.136603,0 0.136603,0c0.136603,0 0.136603,0 0.136603,0c0,0 0.136603,0 0.136603,0c0,0 0,0 0.136603,0c0,0 0,0 0.136603,0c0,0 0,0.126421 0,0.126421c0.136603,0 0.136603,0 0.136603,0c0,0 0.136603,0 0.136603,0c0,0 0.136603,0 0.136603,0c0,0 0.136603,0 0.136603,0c0.136603,0.12642 0.273207,0.12642 0.273207,0.12642c0.136603,0 0.176614,0.037027 0.273207,0.12642c0.096593,0.089394 0.273207,0 0.273207,0c0.136603,0.126421 0.273207,0.126421 0.273207,0.126421c0,0 0.04001,0.037027 0.136603,0.12642c0.096593,0.089394 0.136603,0 0.273207,0c0,0 0.136603,0 0.136603,0c0,0.126421 0.136603,0.126421 0.136603,0.126421c0.136603,0 0.147002,-0.048379 0.273207,0c0.178481,0.068419 0.136603,0.12642 0.273206,0.12642c0,0 0.136603,0 0.273207,0c0.136604,0 0.136604,0.126421 0.273208,0.126421c0.136603,0 0.136603,0 0.273207,0c0.136603,0 0.136603,0 0.273207,0c0.136603,0 0.136603,0 0.273207,0c0,0 0.136603,0.12642 0.273207,0.12642c0.136603,0 0.136603,0 0.273207,0c0.136603,0 0.273207,0 0.273207,0c0.136603,0 0.273207,0 0.273207,0c0.136603,0.12642 0.273207,0.12642 0.40981,0.12642c0.136603,0 0.136603,0 0.273207,0c0.136603,0 0.273207,0 0.40981,0c0,0 0.273207,0 0.40981,0c0.136603,0 0.273207,0 0.40981,0c0.136603,0 0.136603,0 0.40981,0c0.136603,0 0.136603,0 0.40981,0c0,0 0.136603,0 0.273207,0c0.136603,0 0.136603,0 0.273207,0c0,0 0.136603,0 0.273207,0c0,0 0,0 0.136603,0c0.136603,0 0.136603,0 0.273207,0c0,0 0.136603,0 0.273207,0c0,0 0.136603,0 0.273207,0c0,0 0.136603,0 0.273207,0c0.136603,0 0.136603,0 0.40981,0c0,0 0.136603,0 0.273207,0c0.136603,0 0.136603,0 0.273208,0c0,0 0.136602,0 0.136602,0c0,0 0.136604,0 0.136604,0c0.136602,0 0.136602,0 0.273207,0c0,0 0.136602,0 0.136602,0c0.136604,0 0.136604,0 0.273207,-0.12642c0,0 0.136604,0 0.136604,0c0.136602,0 0.136602,0 0.273207,-0.12642c0,0 0.136602,0 0.136602,0c0.136604,0 0.04001,-0.037028 0.136604,-0.126421c0.096592,-0.089393 0.136602,0 0.136602,0c0.136604,0 0.176615,0.089393 0.273207,0c0.096594,-0.089393 0,-0.12642 0,-0.12642c0.136604,0 0.136604,0 0.136604,0c0.136602,-0.126421 0.136602,-0.126421 0.136602,-0.126421c0,0 0.136604,0 0.136604,0c0.136602,-0.12642 0.136602,-0.12642 0.136602,-0.12642c0,0 0.04001,-0.037027 0.136604,-0.126421c0.096594,-0.089393 0.136602,0 0.136602,0c0,0 0.136604,0 0.136604,-0.12642c0,0 0.136602,0 0.136602,0c0,0 0,0 0,0c0.136604,-0.12642 0.136604,-0.12642 0.136604,-0.12642c0,0 0.04001,0.089393 0.136602,0c0.096594,-0.089394 0,-0.126421 0,-0.126421c0.136604,0 0.136604,0 0.136604,0c0,0 0,-0.12642 0.136602,-0.12642c0,0 0,0 0,0c0,-0.126421 0.136604,-0.126421 0.136604,-0.126421c0,0 0,0 0,0c0,0 0,-0.12642 0.136602,-0.12642c0,0 0,0 0,0c0,0 0,-0.126421 0,-0.126421c0.136604,0 0.136604,0 0.136604,0c0,0 0.136602,0 0.136602,-0.12642c0,0 0,0 0.136604,0c0,0 0,-0.126421 0,-0.126421c0,0 0,0 0.136602,0c0,0 0,0 0,0c0,0 0.04001,0.089394 0.136604,0c0.096594,-0.089393 0,-0.12642 0,-0.12642c0,0 0.136602,0 0.136602,0c0,0 0,0 0.136604,0c0,0 0,0 0,0c0.136602,0 0.136602,0 0.136602,0c0,0 0.136604,0 0.136604,0c0,0 0,0 0.136604,0c0,0 0,0 0,0c0.136602,0 0.136602,0.12642 0.136602,0.12642c0,0 0.136604,0 0.136604,0c0,0 0,0 0.136602,0c0,0 0.04001,-0.089393 0.136604,0c0.096592,0.089394 0,0.126421 0,0.126421c0.136602,0 0.136602,0 0.136602,0c0,0 0.136604,0.12642 0.136604,0.12642c0,0 0.136602,0 0.136602,0c0,0 0,0 0,0c0.136604,0 0.136604,0.126421 0.136604,0.126421c0,0 0.136602,0 0.136602,0c0,0 0,0 0,0c0,0.12642 0.136604,0.12642 0.136604,0.12642c0,0 0,0 0.136602,0c0,0 0,0 0,0.126421c0,0 0,0 0.136604,0c0,0 0,0 0,0c0,0 0.136602,0.12642 0.136602,0.12642c0,0 0.136604,0 0.136604,0.126421c0,0 0.136602,0 0.136602,0c0.136604,0 0.136604,0.12642 0.273207,0.12642c0,0 0.136604,0.12642 0.136604,0.12642c0.136602,0 0.136602,0.126421 0.273207,0.126421c0.136602,0 0.136602,0.12642 0.273207,0.12642c0.136602,0 0.094725,0.058002 0.273207,0.126421c0.126204,0.048379 0.176613,-0.089393 0.273207,0c0.096592,0.089393 0.136602,0.12642 0.136602,0.12642c0,0 0.136604,0 0.136604,0c0.136602,0 0.04001,0.037027 0.136602,0.126421c0.096594,0.089393 0.176615,-0.089394 0.273207,0c0.096594,0.089393 0.136604,0.12642 0.136604,0.12642c0.136602,0 0.273207,0 0.273207,0c0.136602,0.12642 0.136602,0.12642 0.273207,0.12642c0,0 0.136602,0 0.136602,0c0.136604,0.126421 0.136604,0.126421 0.136604,0.126421c0.136602,0 0.136602,0 0.136602,0c0.136604,0 0.136604,0 0.273207,0.126421c0,0 0.136604,0 0.136604,0c0.136602,0 0.136602,0 0.273207,0c0.136602,0 0.136602,0 0.136602,0c0.136604,0 0.136604,0 0.273207,0c0,0 0.04001,0.037027 0.136604,0.126419c0.096594,0.089394 0.136602,0 0.273207,0c0,0 0.136602,0 0.136602,0c0.136604,0 0.136604,0 0.273207,0c0.136604,0 0.273207,0 0.273207,0c0.136604,0.126421 0.273207,0.126421 0.409811,0.126421c0.273207,0 0.409809,0 0.546413,0c0.136602,0 0.273207,0 0.409811,0c0.136602,0 0.273207,0.126421 0.273207,0.126421c0.136602,0 0.273207,0 0.409809,0c0,0 0.136604,0 0.273207,0c0,0 0.136604,0 0.273207,0c0.136604,0 0.136604,0 0.273207,0c0.136602,0 0.136602,0 0.273207,0c0.136604,0 0.273209,0 0.409809,0c0,0 0.136604,0 0.273209,0c0.136604,0 0.273205,0 0.273205,0c0.136604,0 0.273209,0 0.273209,0c0.136604,0 0.136604,0 0.273205,0c0.136604,0 0.136604,0 0.273209,0c0,0 0,0 0.136604,0c0.1366,0 0.1366,0 0.273205,0c0,0 0.136604,-0.126421 0.273209,-0.126421c0,0 0.1366,0 0.273205,0c0,0 0.136604,-0.126421 0.273209,-0.126421c0,0 0.040012,-0.037027 0.1366,-0.126419c0.096592,-0.089394 0.136604,0 0.273209,0c0,0 0.136604,0 0.136604,0c0,0 0,-0.126421 0.1366,-0.126421c0,0 0,0 0.136604,0c0,0 0,-0.126421 0,-0.126421c0.136604,0 0.136604,0 0.136604,0c0,0 0.136604,0.126421 0.136604,0c0,-0.12642 -0.136604,0 -0.136604,0c0,0 0,-0.12642 -0.136604,-0.12642c0,0 -0.040012,0.089393 -0.136604,0c-0.096588,-0.089393 -0.1366,-0.12642 -0.273205,-0.252841c0,0 -0.040012,-0.037027 -0.136604,-0.12642c-0.096592,-0.089393 -0.273205,-0.126421 -0.273205,-0.126421c-0.136604,-0.12642 -0.176617,-0.163447 -0.273209,-0.252841c-0.096592,-0.089393 -0.136604,-0.12642 -0.136604,-0.12642c-0.1366,0 -0.176613,-0.037027 -0.273205,-0.12642c-0.096592,-0.089394 0,-0.126421 -0.136604,-0.252841c0,0 -0.136604,-0.126421 -0.136604,-0.126421c0,-0.12642 -0.1366,-0.12642 -0.1366,-0.12642c0,-0.126421 -0.136604,-0.126421 -0.136604,-0.252841c0,0 -0.136604,0 -0.136604,-0.126421c0,0 0,0 -0.136604,-0.12642c0,0 0.096596,-0.037027 0,-0.126421c-0.096592,-0.089393 -0.1366,-0.12642 -0.1366,-0.12642c-0.136604,0 -0.136604,-0.12642 -0.136604,-0.12642c0,0 0,-0.126421 -0.136604,-0.126421c0,0 0,-0.12642 0,-0.12642c0,-0.126421 -0.136604,-0.126421 -0.136604,-0.126421c0,-0.12642 0.096596,-0.163448 0,-0.252841c-0.096592,-0.089393 -0.1366,0 -0.1366,-0.12642c0,0 0.096592,-0.037027 0,-0.126421c-0.096596,-0.089393 -0.136604,0 -0.136604,-0.12642c0,-0.126421 0,-0.126421 -0.136604,-0.252841c0,0 0,-0.12642 0,-0.252841c0,0 -0.040009,-0.037027 -0.136604,-0.12642c-0.096592,-0.089394 0,-0.126421 0,-0.126421c0,0 0,-0.12642 0,-0.12642c0,-0.126421 0,-0.126421 0,-0.252841c0,0 -0.1366,0 -0.1366,-0.126421c0,0 0,0 0,0c0,-0.12642 0,-0.12642 0,-0.12642c-0.136604,-0.126421 -0.136604,-0.126421 -0.136604,-0.126421c0,-0.12642 0,-0.12642 0,-0.12642c0,0 0,-0.12642 0,-0.12642c0,0 0,0 0,0c-0.136604,-0.126421 -0.136604,-0.126421 -0.136604,-0.126421c0,-0.12642 0,-0.12642 0,-0.12642c0,0 -0.136604,-0.126421 -0.136604,-0.126421c0,0 0,-0.12642 0,-0.12642c0,0 0,0 0,-0.126421c0,0 -0.136602,-0.12642 -0.136602,-0.12642c0,0 0,0 0,-0.126421c0,0 -0.136602,-0.12642 -0.136602,-0.12642c0,-0.126421 0,-0.126421 0,-0.126421c0,-0.12642 0,-0.12642 -0.136604,-0.25284c0,0 0,-0.126421 0,-0.252841c0,0 -0.136602,0 -0.136602,0c0,-0.126421 0,-0.126421 0,-0.252841c0,0 -0.04001,0.089393 -0.136604,0c-0.096594,-0.089393 0,-0.126421 0,-0.126421c0,-0.12642 -0.136602,-0.12642 -0.136602,-0.252841c0,0 0,0 0,0c-0.136604,-0.12642 -0.136604,-0.12642 -0.136604,-0.12642c0,0 -0.04001,-0.037027 -0.136602,-0.12642c-0.096594,-0.089394 0,-0.126421 0,-0.126421c0,-0.12642 -0.136604,-0.12642 -0.136604,-0.12642c0,0 -0.136602,-0.12642 -0.136602,-0.12642c0,0 0,0 0,0c0,-0.12642 -0.136604,-0.12642 -0.136604,-0.12642c0,-0.12642 0,-0.12642 -0.136602,-0.252841c0,0 0,0 -0.136604,-0.12642c0,0 0,0 -0.136604,-0.12642c0,0 -0.136602,-0.12642 -0.136602,-0.12642c-0.136604,0 -0.136604,-0.12642 -0.136604,-0.12642c-0.136602,-0.12642 -0.147001,-0.078042 -0.273207,-0.12642c-0.17848,-0.068418 -0.176613,-0.037027 -0.273207,-0.12642c-0.096592,-0.089393 -0.040009,-0.037027 -0.136602,-0.12642c-0.096594,-0.089393 -0.136604,-0.12642 -0.136604,-0.12642c-0.136602,0 -0.136602,0 -0.273207,-0.12642c0,0 -0.136602,0 -0.136602,0c-0.136604,-0.12642 -0.136604,-0.12642 -0.136604,-0.12642c-0.136602,-0.12642 -0.136602,-0.12642 -0.273207,-0.12642c0,0 -0.136602,0 -0.136602,0c-0.136604,-0.12642 -0.136604,-0.12642 -0.136604,-0.12642c-0.136602,0 -0.136602,0 -0.273207,-0.12642c0,0 -0.136602,0 -0.136602,0c0,0 -0.04001,-0.037028 -0.136604,-0.12642c-0.096592,-0.089393 -0.136602,0 -0.273207,0c0,0 -0.136602,0 -0.136602,0c-0.136604,0 -0.136604,0 -0.136604,0c-0.136602,0 -0.136602,0 -0.273207,-0.12642c0,0 -0.136602,0 -0.136602,0c-0.136604,0 -0.136604,0 -0.136604,0c-0.136602,0 -0.273207,0 -0.273207,0c-0.136602,0 -0.136602,0 -0.409809,0c0,0 -0.136604,0 -0.273207,0c-0.136604,0 -0.136604,0 -0.273207,0c-0.136604,0 -0.273207,0 -0.409811,0c-0.136602,0 -0.273207,0 -0.273207,0c-0.136602,0 -0.273207,0 -0.273207,0c-0.136602,0 -0.273207,0 -0.273207,0c-0.136602,0 -0.273207,0 -0.273207,0c-0.136602,0 -0.273207,0 -0.273207,0c-0.136602,0 -0.273207,0 -0.409809,0c0,0 -0.136604,0 -0.273207,0c-0.136604,0 -0.136604,0 -0.273207,0c-0.136604,0 -0.273207,0 -0.409811,0c0,0 0,0 -0.136602,0c-0.136604,0 -0.136604,0 -0.273207,0c0,0 -0.136604,0 -0.136604,0c-0.136604,0 -0.136604,0 -0.273207,0c0,0 0,0 -0.136604,0c0,0 0,0 -0.136602,0c0,0 0,0 -0.136604,0c0,0 0,0 -0.136602,0c0,0 0,0 0,0c0,0 -0.136604,0 -0.136604,0c0,0 0,0.12642 0,0.12642c-0.136602,0 -0.136602,0 -0.136602,0l-0.409811,0.12642" id="svg_26" stroke-width="null" stroke="#ffaaaa" fill="#191919"/>
  <text transform="matrix(0.814019, 0, 0, 0.638969, 44.6826, 20.5623)" xml:space="preserve" text-anchor="start" font-family="Georgia, Times, 'Times New Roman', serif" font-size="24" id="svg_39" y="-8.262942" x="-1.150357" stroke-opacity="null" stroke-width="0" stroke="null" fill="#000000">explain</text>
  <rect id="svg_43" height="0" width="3.000009" y="18.056276" x="67.437544" fill-opacity="0.62" stroke-opacity="null" stroke-width="null" stroke="null" fill="url(#svg_42)"/>
  <text transform="matrix(0.814019, 0, 0, 0.652025, 44.6826, 21.0758)" xml:space="preserve" text-anchor="start" font-family="Georgia, Times, 'Times New Roman', serif" font-size="24" id="svg_47" y="-10.347115" x="-0.075433" stroke-opacity="null" stroke-width="0" stroke="null" fill="#ffffff">explain</text>
  <rect id="svg_54" height="0.124998" width="0" y="31.180993" x="44.812627" stroke-opacity="null" stroke-width="null" stroke="#ffaaaa" fill="url(#svg_56)"/>
 </g>
</svg>